<svg width="13" height="13" viewBox="0 0 13 13" fill="none" xmlns="http://www.w3.org/2000/svg">
<path d="M6.5 7.3125C6.09826 7.3125 5.70554 7.19337 5.3715 6.97017C5.03746 6.74698 4.77711 6.42974 4.62337 6.05858C4.46963 5.68741 4.4294 5.279 4.50778 4.88497C4.58616 4.49095 4.77962 4.12902 5.06369 3.84494C5.34777 3.56087 5.7097 3.36741 6.10372 3.28903C6.49775 3.21065 6.90616 3.25088 7.27733 3.40462C7.64849 3.55836 7.96573 3.81871 8.18892 4.15275C8.41212 4.48679 8.53125 4.87951 8.53125 5.28125C8.53061 5.81977 8.31639 6.33606 7.9356 6.71685C7.55481 7.09764 7.03852 7.31186 6.5 7.3125ZM6.5 4.0625C6.25896 4.0625 6.02332 4.13398 5.8229 4.2679C5.62248 4.40182 5.46627 4.59216 5.37402 4.81486C5.28178 5.03755 5.25764 5.2826 5.30467 5.51902C5.35169 5.75543 5.46777 5.97259 5.63821 6.14304C5.80866 6.31348 6.02582 6.42956 6.26224 6.47658C6.49865 6.52361 6.7437 6.49947 6.9664 6.40723C7.18909 6.31499 7.37944 6.15878 7.51336 5.95835C7.64727 5.75793 7.71875 5.5223 7.71875 5.28125C7.71843 4.95812 7.58992 4.64831 7.36143 4.41982C7.13294 4.19133 6.82313 4.06282 6.5 4.0625Z" fill="#6B7073"/>
<path d="M6.5 12.1875L3.07288 8.14572C3.02526 8.08503 2.97813 8.02396 2.9315 7.9625C2.34638 7.19119 2.03016 6.24938 2.03125 5.28125C2.03125 4.09606 2.50207 2.95942 3.34012 2.12137C4.17817 1.28331 5.31482 0.8125 6.5 0.8125C7.68519 0.8125 8.82183 1.28331 9.65989 2.12137C10.4979 2.95942 10.9688 4.09606 10.9688 5.28125C10.9697 6.24892 10.6536 7.19025 10.0689 7.96128L10.0685 7.9625C10.0685 7.9625 9.94663 8.12256 9.92835 8.14409L6.5 12.1875ZM3.58028 7.47297C3.58028 7.47297 3.67494 7.59809 3.69647 7.62491L6.5 10.9314L9.30719 7.62044C9.32507 7.59809 9.42013 7.47216 9.42053 7.47175C9.89878 6.84172 10.1572 6.07224 10.1563 5.28125C10.1563 4.31155 9.77104 3.38157 9.08536 2.69589C8.39968 2.01021 7.4697 1.625 6.5 1.625C5.5303 1.625 4.60032 2.01021 3.91464 2.69589C3.22896 3.38157 2.84375 4.31155 2.84375 5.28125C2.84275 6.07275 3.1015 6.84271 3.58028 7.47297Z" fill="#6B7073"/>
</svg>
