<svg width="19" height="12" viewBox="0 0 19 12" fill="none" xmlns="http://www.w3.org/2000/svg">
<path fill-rule="evenodd" clip-rule="evenodd" d="M19 1.125C19 0.50368 18.5274 0 17.9444 0H16.8889C16.3059 0 15.8333 0.50368 15.8333 1.125V10.875C15.8333 11.4963 16.3059 12 16.8889 12H17.9444C18.5274 12 19 11.4963 19 10.875V1.125ZM11.6433 2.4H12.6989C13.2818 2.4 13.7544 2.91577 13.7544 3.552V10.848C13.7544 11.4842 13.2818 12 12.6989 12H11.6433C11.0604 12 10.5878 11.4842 10.5878 10.848V3.552C10.5878 2.91577 11.0604 2.4 11.6433 2.4ZM7.35668 4.99999H6.30112C5.71815 4.99999 5.24556 5.52232 5.24556 6.16666V10.8333C5.24556 11.4777 5.71815 12 6.30112 12H7.35668C7.93964 12 8.41223 11.4777 8.41223 10.8333V6.16666C8.41223 5.52232 7.93964 4.99999 7.35668 4.99999ZM2.11111 7.4H1.05556C0.472588 7.4 0 7.91487 0 8.55V10.85C0 11.4851 0.472588 12 1.05556 12H2.11111C2.69408 12 3.16667 11.4851 3.16667 10.85V8.55C3.16667 7.91487 2.69408 7.4 2.11111 7.4Z" fill="black"/>
</svg>
