<svg width="23" height="22" viewBox="0 0 23 22" fill="none" xmlns="http://www.w3.org/2000/svg">
<path d="M21.0939 11C21.0939 5.47715 16.5957 1 11.0469 1C5.49817 1 1 5.47715 1 11C1 16.5228 5.49817 21 11.0469 21C16.5957 21 21.0939 16.5228 21.0939 11Z" stroke="#484C52" stroke-width="2"/>
<path d="M11.4502 7.29796L14.3838 6.32465C15.2742 6.02924 15.7194 5.88153 15.9544 6.11544C16.1894 6.34935 16.0411 6.79247 15.7442 7.67871L14.7663 10.5986C14.2605 12.1088 14.0076 12.8639 13.4636 13.4054C12.9196 13.9469 12.1609 14.1986 10.6436 14.702L7.71003 15.6753C6.81963 15.9708 6.37443 16.1185 6.13942 15.8846C5.90441 15.6507 6.05282 15.2075 6.34961 14.3213L7.32749 11.4014C7.83326 9.8912 8.08614 9.1361 8.63019 8.59457C9.17426 8.05306 9.93291 7.80136 11.4502 7.29796Z" stroke="#484C52" stroke-width="1.5" stroke-linecap="round" stroke-linejoin="round"/>
<path d="M11.0469 11L11.0405 11.0064" stroke="#484C52" stroke-width="2.5" stroke-linecap="round" stroke-linejoin="round"/>
</svg>
