<svg width="21" height="21" viewBox="0 0 21 21" fill="none" xmlns="http://www.w3.org/2000/svg">
<path d="M9.4165 6.33317H11.0832V7.99984H9.4165V6.33317ZM9.4165 9.6665H11.0832V14.6665H9.4165V9.6665ZM10.2498 2.1665C5.64984 2.1665 1.9165 5.89984 1.9165 10.4998C1.9165 15.0998 5.64984 18.8332 10.2498 18.8332C14.8498 18.8332 18.5832 15.0998 18.5832 10.4998C18.5832 5.89984 14.8498 2.1665 10.2498 2.1665ZM10.2498 17.1665C6.57484 17.1665 3.58317 14.1748 3.58317 10.4998C3.58317 6.82484 6.57484 3.83317 10.2498 3.83317C13.9248 3.83317 16.9165 6.82484 16.9165 10.4998C16.9165 14.1748 13.9248 17.1665 10.2498 17.1665Z" fill="white"/>
</svg>
