<svg width="21" height="21" viewBox="0 0 21 21" fill="none" xmlns="http://www.w3.org/2000/svg">
<path d="M9.9165 6.33317H11.5832V7.99984H9.9165V6.33317ZM9.9165 9.6665H11.5832V14.6665H9.9165V9.6665ZM10.7498 2.1665C6.14984 2.1665 2.4165 5.89984 2.4165 10.4998C2.4165 15.0998 6.14984 18.8332 10.7498 18.8332C15.3498 18.8332 19.0832 15.0998 19.0832 10.4998C19.0832 5.89984 15.3498 2.1665 10.7498 2.1665ZM10.7498 17.1665C7.07484 17.1665 4.08317 14.1748 4.08317 10.4998C4.08317 6.82484 7.07484 3.83317 10.7498 3.83317C14.4248 3.83317 17.4165 6.82484 17.4165 10.4998C17.4165 14.1748 14.4248 17.1665 10.7498 17.1665Z" fill="#858585"/>
</svg>
