<svg width="21" height="20" viewBox="0 0 21 20" fill="none" xmlns="http://www.w3.org/2000/svg">
<path d="M9.6665 5.83317H11.3332V7.49984H9.6665V5.83317ZM9.6665 9.1665H11.3332V14.1665H9.6665V9.1665ZM10.4998 1.6665C5.89984 1.6665 2.1665 5.39984 2.1665 9.99984C2.1665 14.5998 5.89984 18.3332 10.4998 18.3332C15.0998 18.3332 18.8332 14.5998 18.8332 9.99984C18.8332 5.39984 15.0998 1.6665 10.4998 1.6665ZM10.4998 16.6665C6.82484 16.6665 3.83317 13.6748 3.83317 9.99984C3.83317 6.32484 6.82484 3.33317 10.4998 3.33317C14.1748 3.33317 17.1665 6.32484 17.1665 9.99984C17.1665 13.6748 14.1748 16.6665 10.4998 16.6665Z" fill="#858585"/>
</svg>
