<svg width="15" height="16" viewBox="0 0 15 16" fill="none" xmlns="http://www.w3.org/2000/svg">
<path d="M8.125 11.18L5.59714 8.65286L6.10286 8.13857L7.76786 9.80357V3.625H8.48214V9.80357L10.1464 8.13929L10.6529 8.65286L8.125 11.18ZM4.27929 13.625C3.95024 13.625 3.67571 13.515 3.45571 13.295C3.23571 13.075 3.12548 12.8002 3.125 12.4707V10.74H3.83929V12.4707C3.83929 12.5807 3.885 12.6817 3.97643 12.7736C4.06786 12.8655 4.16857 12.9112 4.27857 12.9107H11.9714C12.081 12.9107 12.1817 12.865 12.2736 12.7736C12.3655 12.6821 12.4112 12.5812 12.4107 12.4707V10.74H13.125V12.4707C13.125 12.7998 13.015 13.0743 12.795 13.2943C12.575 13.5143 12.3002 13.6245 11.9707 13.625H4.27929Z" fill="#F8F8F8"/>
</svg>
