<svg width="29" height="28" viewBox="0 0 29 28" fill="none" xmlns="http://www.w3.org/2000/svg">
<path d="M19.0879 13.7422C21.2148 13.7422 22.9375 11.8701 22.9375 9.56738C22.9375 7.2998 21.2236 5.48926 19.0879 5.48926C16.9785 5.48926 15.2383 7.32617 15.2383 9.58496C15.2471 11.8789 16.9697 13.7422 19.0879 13.7422ZM8.90137 13.9443C10.7559 13.9443 12.25 12.3008 12.25 10.2705C12.25 8.29297 10.7559 6.69336 8.90137 6.69336C7.06445 6.69336 5.54395 8.31934 5.55273 10.2793C5.55273 12.3096 7.05566 13.9443 8.90137 13.9443ZM19.0879 12.2041C17.875 12.2041 16.8467 11.0615 16.8467 9.57617C16.8467 8.14355 17.8662 7.02734 19.0879 7.02734C20.3184 7.02734 21.3291 8.12598 21.3291 9.56738C21.3291 11.0439 20.3096 12.2041 19.0879 12.2041ZM8.90137 12.4238C7.9082 12.4238 7.06445 11.4746 7.06445 10.2793C7.06445 9.13672 7.89941 8.20508 8.90137 8.20508C9.9209 8.20508 10.7471 9.11914 10.7471 10.2705C10.7471 11.4746 9.90332 12.4238 8.90137 12.4238ZM4.06738 22.0215H10.8965C10.4131 21.7402 10.0879 21.0986 10.1494 20.5186H3.98828C3.82129 20.5186 3.75098 20.4395 3.75098 20.29C3.75098 18.2773 6.10645 16.3613 8.89258 16.3613C9.87695 16.3613 10.8613 16.6074 11.6172 17.0293C11.916 16.5986 12.2852 16.2295 12.7686 15.9131C11.6523 15.2275 10.2637 14.8584 8.89258 14.8584C5.1748 14.8584 2.16895 17.5127 2.16895 20.4307C2.16895 21.4854 2.80176 22.0215 4.06738 22.0215ZM13.6123 22.0215H24.5635C26.084 22.0215 26.8223 21.5381 26.8223 20.501C26.8223 18.084 23.7988 14.8672 19.0879 14.8672C14.377 14.8672 11.3535 18.084 11.3535 20.501C11.3535 21.5381 12.0918 22.0215 13.6123 22.0215ZM13.3311 20.4834C13.1289 20.4834 13.0498 20.4131 13.0498 20.2549C13.0498 18.9102 15.2207 16.4053 19.0879 16.4053C22.9551 16.4053 25.126 18.9102 25.126 20.2549C25.126 20.4131 25.0469 20.4834 24.8359 20.4834H13.3311Z" fill="#484C52"/>
</svg>
