<svg width="20" height="20" viewBox="0 0 20 20" fill="none" xmlns="http://www.w3.org/2000/svg">
<path d="M15.6251 8.0915V7.504C15.6251 4.27984 13.1051 1.6665 10.0001 1.6665C6.89505 1.6665 4.37505 4.27984 4.37505 7.504V8.0915C4.37605 8.7928 4.17592 9.47967 3.79839 10.0707L2.87505 11.5082C2.03255 12.8207 2.67588 14.6048 4.14172 15.0198C7.97181 16.1056 12.0283 16.1056 15.8584 15.0198C17.3242 14.6048 17.9676 12.8207 17.1251 11.509L16.2017 10.0715C15.8239 9.48059 15.6235 8.79372 15.6242 8.09234L15.6251 8.0915Z" stroke="#407BFF" stroke-width="1.5"/>
<path d="M6.25 15.833C6.79583 17.2897 8.26833 18.333 10 18.333C11.7317 18.333 13.2042 17.2897 13.75 15.833" stroke="#407BFF" stroke-width="1.5" stroke-linecap="round"/>
</svg>
