<svg width="17" height="12" viewBox="0 0 17 12" fill="none" xmlns="http://www.w3.org/2000/svg">
<path fill-rule="evenodd" clip-rule="evenodd" d="M8.50047 2.4006C10.967 2.40071 13.3393 3.29823 15.1269 4.90768C15.2615 5.03194 15.4766 5.03037 15.6092 4.90417L16.896 3.67435C16.9631 3.61034 17.0006 3.52363 17 3.43342C16.9994 3.34321 16.9609 3.25692 16.893 3.19366C12.2011 -1.06455 4.79908 -1.06455 0.107163 3.19366C0.0391973 3.25688 0.000634479 3.34313 7.75932e-06 3.43335C-0.00061896 3.52356 0.0367421 3.61029 0.103824 3.67435L1.39096 4.90417C1.52346 5.03056 1.73878 5.03213 1.87331 4.90768C3.66116 3.29813 6.03367 2.4006 8.50047 2.4006ZM8.49714 6.50849C9.84324 6.50841 11.1413 7.00652 12.1391 7.90604C12.2741 8.0337 12.4867 8.03094 12.6182 7.8998L13.8949 6.61563C13.9621 6.54827 13.9994 6.45689 13.9984 6.36194C13.9975 6.26699 13.9583 6.17638 13.8897 6.1104C10.8512 3.29654 6.14567 3.29654 3.10715 6.1104C3.03852 6.17638 2.99936 6.26703 2.99846 6.36201C2.99756 6.457 3.03499 6.54837 3.10236 6.61563L4.37864 7.8998C4.5102 8.03094 4.72279 8.0337 4.85775 7.90604C5.85489 7.00712 7.15193 6.50905 8.49714 6.50849ZM11.0007 9.22765C11.0026 9.3302 10.9659 9.42906 10.8991 9.5009L8.74043 11.8903C8.67715 11.9605 8.59088 12 8.50086 12C8.41084 12 8.32457 11.9605 8.26129 11.8903L6.10225 9.5009C6.03556 9.42901 5.99887 9.33011 6.00084 9.22757C6.00282 9.12502 6.04329 9.02792 6.1127 8.95918C7.49131 7.68028 9.51041 7.68028 10.889 8.95918C10.9584 9.02797 10.9988 9.12511 11.0007 9.22765Z" fill="black"/>
</svg>
